<svg xmlns="http://www.w3.org/2000/svg" viewBox="0 0 1080 2160">
  <!-- Background with subtle gradient -->
  <defs>
    <linearGradient id="bgGrad" x1="0%" y1="0%" x2="100%" y2="100%">
      <stop offset="0%" style="stop-color:#ffffff;stop-opacity:1" />
      <stop offset="100%" style="stop-color:#f5f9fb;stop-opacity:1" />
    </linearGradient>
    <linearGradient id="grad1" x1="0%" y1="0%" x2="100%" y2="100%">
      <stop offset="0%" style="stop-color:#005c83;stop-opacity:1" />
      <stop offset="100%" style="stop-color:#004d6e;stop-opacity:1" />
    </linearGradient>
    <linearGradient id="grad2" x1="0%" y1="0%" x2="100%" y2="100%">
      <stop offset="0%" style="stop-color:#0076a3;stop-opacity:1" />
      <stop offset="100%" style="stop-color:#005a8e;stop-opacity:1" />
    </linearGradient>
    <linearGradient id="grad3" x1="0%" y1="0%" x2="100%" y2="100%">
      <stop offset="0%" style="stop-color:#69afcd;stop-opacity:1" />
      <stop offset="100%" style="stop-color:#4a8fb1;stop-opacity:1" />
    </linearGradient>
  </defs>
  
  <!-- Background -->
  <rect width="1080" height="2160" fill="url(#bgGrad)"/>
  
  <!-- Scattered "tabs" in the background -->
  <g opacity="0.1">
    <rect x="100" y="400" width="200" height="150" rx="10" fill="#004d6e"/>
    <rect x="800" y="300" width="180" height="140" rx="10" fill="#005c83"/>
    <rect x="500" y="200" width="220" height="160" rx="10" fill="#0076a3"/>
    <rect x="200" y="600" width="190" height="145" rx="10" fill="#69afcd"/>
    <rect x="700" y="500" width="210" height="155" rx="10" fill="#4a8fb1"/>
  </g>
  
  <!-- Center logo, larger scale -->
  <g transform="translate(290,930) scale(2.5)">
    <rect width="200" height="200" rx="16" ry="16" fill="#ffffff"/>
    <g>
      <rect x="40" y="40" width="20" height="120" rx="10" fill="url(#grad1)" />
      <rect x="80" y="40" width="20" height="120" rx="10" fill="url(#grad2)" />
      <rect x="30" y="70" width="140" height="20" rx="10" fill="url(#grad3)" />
      <rect x="30" y="110" width="140" height="20" rx="10" fill="url(#grad1)" />
    </g>
  </g>
  
  <!-- Decorative elements -->
  <g opacity="0.15">
    <circle cx="200" y="1600" r="100" fill="#005c83"/>
    <circle cx="880" y="1700" r="80" fill="#0076a3"/>
    <circle cx="540" y="1800" r="60" fill="#69afcd"/>
  </g>
</svg>