<svg xmlns="http://www.w3.org/2000/svg" viewBox="0 0 220 220">
  <defs>
    <!-- Elegant Gradient Background -->
    <linearGradient id="grad" x1="0%" y1="0%" x2="100%" y2="100%">
      <stop offset="0%" style="stop-color:#003B56;stop-opacity:1" />
      <stop offset="100%" style="stop-color:#0076A3;stop-opacity:1" />
    </linearGradient>

    <!-- Drop Shadow Filter -->
    <filter id="f1" x="-10%" y="-10%" width="120%" height="120%">
      <feOffset result="offOut" in="SourceGraphic" dx="4" dy="4" />
      <feGaussianBlur in="offOut" result="blurred" stdDeviation="4" />
      <feBlend in="SourceGraphic" in2="blurred" mode="normal" />
    </filter>
  </defs>

  <!-- Background with Gradient -->
  <rect width="220" height="220" rx="40" ry="40" fill="url(#grad)" />

  <!-- Enhanced Chat Bubble without Tail -->
  <g filter="url(#f1)" transform="translate(0, -20)">
    <!-- Rounded Chat Bubble -->
    <path d="M70 60 Q90 30 130 30 Q170 30 190 60 Q210 90 210 130 Q210 170 190 200 Q170 230 130 230 Q100 230 80 200 Q70 190 60 180 Q50 170 50 160 Q50 150 60 140 Q70 130 80 120 L70 60 Z" fill="#FFFFFF" stroke="#003B56" stroke-width="2" />
    
    <!-- Central Hash Symbol -->
    <text x="110" y="120" font-family="fantasy, Arial, sans-serif" font-size="80" fill="#0076A3" text-anchor="middle" alignment-baseline="middle" dy="0.3em">#</text>
  </g>
</svg>
