<!-- f48318 -->

<svg xmlns="http://www.w3.org/2000/svg" width="12" height="12" fill="none" viewBox="0 0 12 12" class="Vc9qGkV" aria-hidden="true"><rect width="12" height="12" fill="#005c83" rx="6"></rect><path fill="#fff" fill-rule="evenodd" d="m4.412 6.666-.627 1.92a.36.36 0 0 0 .551.405L6 7.8l1.664 1.191a.36.36 0 0 0 .551-.404l-.627-1.921L9.21 5.507a.39.39 0 0 0-.227-.707H6.979l-.637-1.952a.36.36 0 0 0-.684 0L5.02 4.8H3.017a.39.39 0 0 0-.227.707l1.622 1.159Z" clip-rule="evenodd"></path></svg>